<svg
	id="svg"
	version="1.1"
	xmlns="http://www.w3.org/2000/svg"
	xmlns:xlink="http://www.w3.org/1999/xlink"
	width="400"
	height="400"
	viewBox="0, 0, 400,400"
>
	<g id="svgg">
		<path
			id="path0"
			d="M71.327 37.315 C 71.003 38.340,70.047 47.561,69.801 52.037 C 69.678 54.278,69.297 57.944,68.955 60.185 C 68.014 66.350,68.020 125.474,68.963 131.852 C 69.309 134.194,69.693 137.194,69.816 138.519 C 70.205 142.684,72.974 163.029,73.521 165.741 C 73.809 167.167,74.308 170.000,74.630 172.037 C 74.951 174.074,75.439 176.657,75.713 177.778 C 75.988 178.898,76.664 181.981,77.215 184.630 C 78.249 189.594,80.724 199.881,81.671 203.148 C 83.931 210.948,85.338 215.361,87.044 220.000 C 89.872 227.692,89.802 227.442,89.226 227.799 C 87.851 228.648,82.536 226.245,66.111 217.347 C 64.278 216.354,61.300 214.419,59.495 213.048 C 54.404 209.183,52.962 208.607,52.352 210.197 C 52.024 211.051,53.050 213.110,57.499 220.529 C 61.622 227.402,61.796 227.796,61.011 228.448 C 60.260 229.072,49.594 230.800,43.333 231.313 C 31.160 232.310,31.322 232.991,45.499 240.430 C 63.754 250.008,76.351 255.455,92.593 260.792 C 95.139 261.629,97.556 262.442,97.963 262.599 C 103.974 264.915,123.972 270.045,135.556 272.243 C 150.254 275.032,166.315 277.423,170.267 277.412 C 171.126 277.409,173.626 277.699,175.822 278.056 C 179.381 278.633,182.935 278.703,208.519 278.699 L 237.222 278.694 246.481 277.659 C 276.183 274.341,301.583 269.123,321.667 262.214 C 323.500 261.584,326.667 260.514,328.704 259.836 C 339.898 256.113,364.113 245.361,369.410 241.762 C 371.729 240.186,379.291 233.242,379.150 232.818 C 379.055 232.533,375.206 232.351,366.574 232.222 C 359.732 232.120,354.035 231.937,353.914 231.815 C 353.792 231.693,354.836 229.022,356.234 225.880 C 357.633 222.737,358.988 219.504,359.247 218.694 C 359.750 217.120,360.589 215.035,361.142 213.987 C 361.573 213.170,361.582 211.587,361.158 211.325 C 360.980 211.215,359.792 211.799,358.518 212.622 C 357.244 213.445,353.931 215.222,351.156 216.571 C 348.381 217.920,344.611 219.885,342.778 220.938 C 331.791 227.252,328.989 228.736,324.630 230.555 C 324.019 230.810,322.620 231.460,321.522 232.000 C 320.424 232.540,319.481 232.936,319.427 232.880 C 318.864 232.292,319.455 229.254,320.564 227.037 C 321.023 226.120,321.612 224.620,321.874 223.704 C 322.136 222.787,322.578 221.767,322.856 221.437 C 323.781 220.339,329.037 205.656,330.795 199.259 C 334.360 186.289,334.788 184.314,338.182 165.185 C 338.778 161.824,339.599 156.407,340.006 153.148 C 340.413 149.889,341.000 145.530,341.310 143.463 C 342.822 133.392,342.960 69.572,341.487 61.514 C 341.279 60.376,340.943 57.444,340.739 55.000 C 340.263 49.273,339.242 40.978,338.677 38.241 C 338.442 37.103,337.442 37.174,335.087 38.494 C 328.221 42.344,316.063 46.920,301.667 51.073 C 299.075 51.821,292.677 52.852,285.000 53.758 C 279.757 54.377,262.048 54.378,255.926 53.759 C 249.546 53.115,240.964 51.127,233.889 48.656 C 232.463 48.158,230.546 47.526,229.630 47.251 C 225.198 45.924,215.474 41.698,210.000 38.720 C 206.723 36.938,205.858 37.008,201.351 39.417 C 178.501 51.633,147.455 56.878,118.996 53.330 C 105.961 51.704,87.386 45.279,76.060 38.477 C 72.862 36.557,71.659 36.261,71.327 37.315 M210.948 43.674 C 214.469 45.341,229.994 51.852,230.447 51.852 C 230.649 51.852,231.339 52.076,231.981 52.350 C 233.705 53.087,235.853 53.766,238.148 54.301 C 239.269 54.563,241.185 55.044,242.407 55.371 C 245.012 56.068,250.221 57.111,255.206 57.934 C 259.322 58.614,277.039 58.765,280.395 58.149 C 281.502 57.946,283.824 57.623,285.556 57.430 C 289.161 57.029,294.637 56.146,298.148 55.401 C 299.472 55.120,301.889 54.619,303.519 54.288 C 306.575 53.667,312.213 52.082,313.519 51.477 C 313.926 51.288,315.676 50.649,317.407 50.057 C 320.464 49.012,325.933 46.825,331.357 44.479 C 335.564 42.660,335.261 41.945,336.279 56.061 C 338.079 81.008,338.272 85.768,338.262 105.000 C 338.240 148.595,334.625 177.354,325.880 203.519 C 318.730 224.910,314.703 234.935,312.905 235.821 C 311.051 236.734,308.402 237.778,307.937 237.778 C 307.669 237.778,305.649 238.377,303.447 239.109 C 299.592 240.392,297.713 240.934,293.333 242.029 C 292.213 242.309,289.963 242.893,288.333 243.326 C 286.704 243.760,284.704 244.267,283.889 244.454 C 283.074 244.640,281.324 245.063,280.000 245.392 C 274.288 246.815,272.961 247.099,269.630 247.610 C 263.205 248.596,261.829 248.827,260.074 249.216 C 256.366 250.038,251.504 250.784,247.778 251.101 C 245.639 251.283,241.639 251.613,238.889 251.834 C 236.139 252.055,231.806 252.441,229.259 252.692 C 223.023 253.306,190.927 253.305,185.370 252.690 C 180.859 252.191,174.365 251.578,168.693 251.115 C 166.650 250.949,163.567 250.535,161.841 250.196 C 155.674 248.985,153.127 248.470,151.667 248.140 C 150.852 247.956,149.269 247.702,148.148 247.577 C 147.028 247.451,144.611 246.934,142.778 246.428 C 140.944 245.922,138.528 245.265,137.407 244.966 C 136.287 244.668,134.537 244.183,133.519 243.888 C 132.500 243.594,130.750 243.108,129.630 242.808 C 127.205 242.161,123.916 241.254,121.111 240.460 C 119.991 240.143,117.907 239.425,116.481 238.864 C 115.056 238.303,112.639 237.480,111.111 237.034 C 108.114 236.160,106.738 235.700,105.000 234.991 C 101.696 233.643,97.778 232.030,96.416 231.457 C 94.693 230.732,93.195 228.767,92.765 226.667 C 92.619 225.954,91.626 222.870,90.557 219.815 C 88.023 212.573,86.816 208.826,85.877 205.290 C 85.456 203.704,84.714 200.907,84.228 199.074 C 72.808 155.996,68.957 106.107,73.349 58.148 C 74.620 44.263,75.039 42.528,76.886 43.493 C 77.479 43.802,78.630 44.337,79.444 44.683 C 80.259 45.029,81.146 45.480,81.416 45.686 C 82.044 46.167,85.303 47.549,89.074 48.933 C 90.704 49.531,92.537 50.247,93.148 50.523 C 93.759 50.800,94.843 51.207,95.556 51.429 C 96.269 51.650,97.935 52.185,99.259 52.616 C 100.583 53.048,103.083 53.730,104.815 54.133 C 106.546 54.535,108.963 55.104,110.185 55.398 C 112.963 56.067,118.157 56.953,122.037 57.422 C 123.667 57.619,125.800 57.946,126.777 58.149 C 129.107 58.633,146.554 58.621,149.559 58.134 C 150.844 57.925,153.427 57.588,155.299 57.385 C 170.046 55.783,183.886 51.935,197.037 45.782 C 200.194 44.305,203.194 42.901,203.704 42.663 C 205.246 41.943,208.148 42.348,210.948 43.674 M191.746 95.564 C 154.308 99.842,121.359 126.539,121.075 152.826 L 121.041 155.926 115.150 155.926 L 109.259 155.926 109.259 129.815 L 109.259 103.704 113.148 103.704 L 117.037 103.704 117.037 101.481 L 117.037 99.259 105.000 99.259 L 92.963 99.259 92.963 101.481 L 92.963 103.704 96.852 103.704 L 100.741 103.704 100.741 130.185 L 100.741 156.667 96.852 156.667 L 92.963 156.667 92.963 158.889 L 92.963 161.111 107.340 161.111 L 121.717 161.111 122.332 163.056 C 126.776 177.100,144.311 182.177,161.026 174.259 C 184.959 162.922,201.648 137.484,193.646 124.537 C 185.286 111.010,151.922 124.954,143.467 145.509 C 142.783 147.172,142.608 147.387,142.601 146.574 C 142.593 145.561,142.579 145.556,140.000 145.556 L 137.407 145.556 137.407 150.741 L 137.407 155.926 130.687 155.926 L 123.967 155.926 124.183 153.608 C 125.866 135.593,149.657 110.997,173.704 102.413 C 194.537 94.976,220.759 96.242,234.983 105.371 L 237.187 106.786 235.168 108.457 C 222.395 119.024,209.473 134.459,194.107 157.503 C 177.237 182.802,172.440 188.538,163.143 194.533 C 148.160 204.194,129.009 204.733,119.810 195.752 C 116.862 192.873,115.270 187.842,116.430 185.065 C 117.205 183.210,117.778 183.352,117.778 185.399 C 117.778 190.185,124.011 190.689,126.291 186.087 C 129.194 180.227,123.668 175.765,118.443 179.750 C 112.780 184.069,113.087 192.122,119.130 197.775 C 129.921 207.870,151.297 206.293,172.916 193.807 C 187.658 185.293,193.063 178.694,206.216 153.148 C 217.000 132.202,223.567 122.266,232.306 113.673 C 237.961 108.113,238.271 107.943,239.695 109.635 C 244.563 115.424,245.714 124.919,242.419 132.115 C 239.046 139.484,231.158 145.544,225.590 145.046 C 215.437 144.137,212.296 144.376,212.797 146.019 C 213.554 148.504,216.287 149.200,222.719 148.545 L 227.105 148.099 229.165 149.327 C 240.017 155.796,242.280 168.333,235.204 182.778 C 228.310 196.849,214.168 205.330,203.087 202.039 C 190.439 198.283,194.261 177.729,209.470 167.715 C 223.607 158.407,236.167 166.825,228.974 180.787 C 226.415 185.753,227.467 187.079,230.228 182.367 C 236.992 170.826,229.643 159.184,217.407 162.058 C 196.797 166.899,185.407 196.089,201.250 203.467 C 217.321 210.950,241.439 197.359,247.164 177.593 C 247.647 175.927,247.705 178.212,247.739 200.278 L 247.778 224.815 243.519 224.815 L 239.259 224.815 239.259 227.037 L 239.259 229.259 250.185 229.259 L 261.111 229.259 261.111 227.037 L 261.111 224.815 257.037 224.815 L 252.963 224.815 252.963 201.420 C 252.963 188.552,253.031 178.094,253.114 178.179 C 253.197 178.264,262.130 190.000,272.964 204.259 L 292.663 230.185 295.405 230.293 L 298.148 230.402 298.148 200.756 L 298.148 171.111 302.222 171.111 L 306.296 171.111 306.296 168.889 L 306.296 166.667 295.370 166.667 L 284.444 166.667 284.444 168.889 L 284.444 171.111 288.704 171.111 L 292.963 171.111 292.963 193.333 C 292.963 205.556,292.838 215.554,292.685 215.552 C 292.532 215.550,284.074 204.556,273.889 191.121 L 255.370 166.694 251.296 166.674 L 247.222 166.653 246.351 163.900 C 244.421 157.801,240.010 152.947,233.169 149.392 C 230.929 148.229,229.258 147.227,229.456 147.166 C 229.653 147.105,231.898 146.461,234.444 145.735 C 239.966 144.160,243.733 142.156,246.691 139.220 C 254.322 131.645,253.155 117.669,244.191 109.291 L 241.305 106.594 242.117 105.937 C 248.538 100.737,267.729 97.259,275.185 99.943 C 286.634 104.064,291.268 115.552,287.353 130.109 C 286.561 133.053,286.593 133.583,287.540 133.219 C 288.466 132.864,289.590 129.082,290.005 124.926 C 292.622 98.710,272.289 88.806,244.446 102.735 L 239.768 105.076 235.736 103.053 C 223.146 96.737,206.411 93.888,191.746 95.564 M188.333 122.378 C 202.055 128.142,190.602 154.030,168.137 168.031 C 149.001 179.957,128.227 177.140,124.610 162.130 L 124.364 161.111 133.478 161.111 C 140.514 161.111,142.596 161.006,142.609 160.648 C 142.618 160.394,142.940 160.781,143.325 161.509 C 144.817 164.331,148.731 166.749,150.764 166.104 C 151.806 165.773,151.364 165.329,149.320 164.650 C 134.222 159.635,156.414 127.015,178.333 122.002 C 181.169 121.353,186.358 121.548,188.333 122.378 M72.833 230.434 C 74.534 231.080,75.923 231.788,75.920 232.008 C 75.909 232.791,75.357 233.234,74.444 233.191 C 73.504 233.147,70.941 237.635,69.157 242.447 C 67.903 245.830,71.871 246.630,74.074 243.438 C 74.564 242.728,74.747 242.685,75.623 243.076 L 76.616 243.519 75.116 246.019 C 73.406 248.868,73.324 248.894,70.452 247.463 C 69.287 246.883,67.125 245.940,65.648 245.368 C 64.171 244.796,62.966 244.229,62.969 244.108 C 62.984 243.533,63.605 243.025,64.439 242.908 C 66.139 242.668,70.690 231.534,69.387 230.805 C 68.813 230.484,68.893 229.259,69.488 229.259 C 69.627 229.259,71.132 229.788,72.833 230.434 M85.372 234.076 C 86.621 235.456,85.119 237.380,83.172 236.891 C 81.987 236.594,81.631 235.393,82.385 234.241 C 83.112 233.132,84.451 233.058,85.372 234.076 M350.130 234.352 C 350.252 234.912,350.453 235.722,350.576 236.153 C 350.906 237.304,349.741 237.627,348.919 236.612 C 348.121 235.627,346.473 235.898,346.099 237.075 C 345.739 238.209,346.216 238.482,349.215 238.859 C 352.491 239.270,353.333 239.903,353.333 241.953 C 353.333 244.375,350.028 247.025,346.993 247.035 C 346.180 247.038,345.213 243.774,345.901 243.349 C 346.181 243.176,346.708 243.409,347.239 243.939 C 348.265 244.965,348.795 245.024,349.918 244.238 C 351.669 243.011,350.789 241.852,348.106 241.852 C 341.752 241.852,341.783 235.615,348.146 233.679 C 349.677 233.214,349.898 233.288,350.130 234.352 M325.273 237.753 C 325.044 239.794,324.347 240.550,322.590 240.661 C 321.324 240.741,320.735 240.997,320.129 241.733 C 319.145 242.926,317.956 242.697,318.348 241.391 C 319.058 239.026,319.383 238.708,321.212 238.591 C 322.609 238.501,323.097 238.287,323.577 237.555 C 324.329 236.408,325.409 236.534,325.273 237.753 M339.433 239.352 C 340.098 239.932,340.626 241.067,341.171 243.087 C 341.944 245.950,342.426 246.581,343.522 246.161 C 344.450 245.805,344.635 245.921,344.507 246.776 C 344.172 248.999,342.180 250.006,340.723 248.688 C 340.145 248.164,340.027 248.227,339.312 249.438 C 337.993 251.674,335.896 251.877,334.255 249.928 C 332.611 247.973,333.082 246.897,336.574 244.628 C 338.309 243.501,338.442 243.160,337.535 242.159 C 336.587 241.111,335.043 241.311,333.699 242.654 C 332.757 243.596,332.462 243.724,332.195 243.302 C 330.591 240.769,337.029 237.255,339.433 239.352 M82.530 239.479 C 84.408 239.777,84.435 239.479,82.073 244.630 C 80.258 248.586,80.050 249.530,80.919 249.863 C 81.321 250.018,81.373 250.252,81.113 250.737 C 80.777 251.365,80.609 251.350,77.989 250.458 C 75.247 249.525,74.439 248.148,76.634 248.148 C 77.903 248.148,80.464 241.256,79.466 240.526 C 78.533 239.844,78.993 238.742,80.096 239.017 C 80.552 239.131,81.648 239.339,82.530 239.479 M312.580 241.828 C 313.117 242.832,313.058 243.556,312.381 244.233 C 311.156 245.457,309.259 244.604,309.259 242.829 C 309.259 241.284,311.868 240.498,312.580 241.828 M93.738 243.351 C 95.451 244.225,95.414 244.018,94.269 246.277 C 93.135 248.515,91.932 248.585,91.997 246.409 C 92.075 243.853,89.321 243.777,88.056 246.300 C 86.485 249.436,87.586 252.222,90.396 252.222 C 92.310 252.222,92.426 253.623,90.556 254.155 C 86.309 255.364,82.939 251.708,84.224 247.288 C 85.512 242.857,89.519 241.199,93.738 243.351 M327.957 243.426 C 328.586 243.971,329.113 245.028,329.482 246.481 C 330.802 251.681,330.716 251.481,331.638 251.481 C 333.561 251.481,333.024 252.835,330.789 253.621 C 329.642 254.024,328.412 254.475,328.056 254.624 C 327.334 254.925,327.128 253.607,327.744 252.634 C 328.025 252.190,327.298 249.487,326.121 246.603 C 325.604 245.335,323.594 245.553,322.728 246.971 C 322.025 248.122,323.976 253.704,325.081 253.704 C 327.549 253.704,323.765 256.695,320.873 257.031 C 320.460 257.079,320.497 255.659,320.921 255.191 C 321.852 254.161,319.462 247.596,318.152 247.585 C 316.439 247.572,316.861 246.467,319.050 245.231 C 321.465 243.868,321.481 243.865,321.481 244.793 C 321.481 245.188,321.648 245.615,321.852 245.741 C 322.056 245.867,322.222 245.805,322.222 245.604 C 322.222 243.464,326.241 241.938,327.957 243.426 M337.565 245.623 C 336.094 246.753,335.918 247.072,336.335 247.850 C 337.288 249.631,339.953 247.890,339.160 246.005 L 338.649 244.791 337.565 245.623 M102.846 246.321 C 105.406 247.291,106.480 250.368,104.996 252.485 L 104.437 253.284 101.321 252.231 C 97.866 251.063,97.778 251.078,97.778 252.856 C 97.778 254.393,99.149 255.899,100.631 255.989 C 101.201 256.024,102.000 256.069,102.407 256.089 C 103.736 256.154,103.319 257.501,101.852 257.882 C 98.754 258.687,95.575 257.128,94.759 254.403 C 93.314 249.583,98.302 244.599,102.846 246.321 M316.617 255.278 C 316.860 255.893,317.299 256.296,317.725 256.296 C 319.652 256.296,318.787 257.665,316.339 258.488 C 314.992 258.941,313.681 259.398,313.426 259.502 C 313.126 259.625,312.963 259.354,312.963 258.735 C 312.963 258.208,313.130 257.778,313.333 257.778 C 313.939 257.778,313.749 255.911,312.860 253.148 C 311.819 249.913,311.570 249.520,310.699 249.748 C 308.976 250.198,310.021 248.520,312.126 247.455 L 314.252 246.380 315.234 250.320 C 315.774 252.487,316.396 254.718,316.617 255.278 M99.494 248.545 C 98.161 249.594,98.256 249.846,100.164 250.326 C 102.473 250.908,102.593 250.874,102.593 249.643 C 102.593 247.835,101.079 247.299,99.494 248.545 M131.744 249.595 C 133.620 250.002,135.674 250.604,136.310 250.933 C 139.053 252.351,138.840 256.571,135.966 257.761 L 134.931 258.190 136.169 259.428 C 140.225 263.484,134.922 267.956,128.459 265.931 C 127.168 265.526,125.319 265.088,124.352 264.957 C 123.384 264.826,122.593 264.588,122.593 264.427 C 122.593 263.569,123.142 262.963,123.918 262.963 C 124.905 262.963,125.273 261.972,126.669 255.556 C 127.089 253.620,127.522 251.747,127.630 251.392 C 127.763 250.955,127.534 250.614,126.921 250.334 C 125.624 249.743,125.991 248.360,127.367 248.651 C 127.899 248.764,129.868 249.188,131.744 249.595 M113.889 249.666 C 121.047 251.613,117.794 263.114,110.547 261.480 C 104.006 260.004,105.249 249.839,112.037 249.293 C 112.241 249.277,113.074 249.445,113.889 249.666 M276.797 252.084 C 277.502 260.422,278.833 265.810,280.030 265.169 C 280.960 264.671,281.257 264.884,280.956 265.833 C 280.328 267.809,278.092 268.780,276.905 267.593 C 276.156 266.843,276.063 266.868,274.702 268.170 C 271.818 270.930,267.778 267.888,267.778 262.956 C 267.778 259.804,269.826 257.259,272.743 256.786 C 274.193 256.550,274.275 256.314,273.727 253.952 C 273.347 252.312,273.265 252.201,272.349 252.067 C 270.898 251.855,271.429 250.860,273.410 250.080 C 276.518 248.855,276.524 248.859,276.797 252.084 M306.680 249.822 C 307.840 250.422,307.944 250.685,308.864 255.356 C 309.380 257.978,309.546 258.328,310.368 258.520 C 312.564 259.034,309.074 261.481,306.146 261.481 C 305.761 261.481,305.909 260.165,306.343 259.731 C 306.652 259.422,306.593 258.612,306.114 256.602 C 305.081 252.264,304.201 251.429,302.244 252.934 C 300.829 254.021,302.090 260.370,303.720 260.370 C 306.504 260.370,302.167 263.180,299.167 263.320 C 298.682 263.343,298.867 262.119,299.445 261.481 C 300.292 260.545,298.332 253.943,297.156 253.775 C 295.499 253.537,295.883 252.625,298.115 251.498 C 300.385 250.352,300.732 250.370,300.755 251.636 C 300.767 252.303,300.930 252.225,301.958 251.061 C 303.656 249.140,304.787 248.843,306.680 249.822 M145.913 251.457 C 146.773 253.065,144.975 254.953,143.391 254.105 C 142.356 253.551,142.125 252.612,142.778 251.614 C 143.505 250.505,145.354 250.412,145.913 251.457 M110.789 252.430 C 109.684 253.835,109.080 257.126,109.698 258.380 C 111.256 261.548,114.444 258.951,114.444 254.514 C 114.444 251.631,112.355 250.439,110.789 252.430 M131.167 252.150 C 130.706 253.056,129.936 256.356,130.138 256.558 C 131.441 257.860,134.815 256.359,134.815 254.477 C 134.815 252.778,131.819 250.867,131.167 252.150 M289.522 254.653 C 290.397 255.219,291.344 257.747,291.009 258.622 C 290.886 258.941,289.540 259.417,287.619 259.820 C 284.091 260.560,283.794 261.055,285.791 262.870 C 286.918 263.895,288.113 263.926,289.969 262.979 C 292.521 261.677,292.648 263.477,290.122 265.150 C 286.251 267.714,282.310 265.934,281.299 261.166 C 280.302 256.463,285.703 252.184,289.522 254.653 M245.986 255.726 C 246.319 256.455,246.279 256.824,245.785 257.577 C 244.701 259.231,242.593 258.630,242.593 256.667 C 242.593 254.699,245.190 253.978,245.986 255.726 M284.815 256.667 C 284.407 257.074,284.074 257.816,284.074 258.316 L 284.074 259.224 285.833 258.690 C 286.801 258.396,287.634 258.154,287.685 258.152 C 287.982 258.139,287.706 256.743,287.333 256.370 C 286.673 255.710,285.651 255.831,284.815 256.667 M145.348 257.718 C 143.987 260.913,143.064 266.957,143.889 267.273 C 144.502 267.509,144.635 268.357,144.109 268.682 C 143.924 268.796,142.530 268.697,141.011 268.460 C 138.103 268.008,137.510 267.286,139.375 266.467 C 140.882 265.805,142.127 258.618,140.795 258.270 C 140.210 258.117,140.098 257.917,140.342 257.459 C 140.828 256.549,145.737 256.803,145.348 257.718 M155.833 258.944 C 157.211 259.371,157.186 259.278,156.530 261.481 C 155.890 263.630,154.563 264.067,154.377 262.189 C 154.022 258.603,150.515 260.268,150.115 264.212 C 149.830 267.017,150.879 268.262,153.382 268.088 C 156.355 267.881,156.128 269.500,153.066 270.346 C 148.594 271.580,145.231 266.680,147.363 262.037 C 148.906 258.678,151.689 257.661,155.833 258.944 M128.878 260.599 C 128.298 263.021,128.576 263.718,130.324 264.220 C 133.422 265.108,135.174 260.946,132.309 259.503 C 129.772 258.225,129.421 258.337,128.878 260.599 M271.481 259.630 C 269.700 261.411,271.329 266.667,273.663 266.667 C 275.567 266.667,275.933 265.645,275.289 262.130 L 274.696 258.889 273.459 258.889 C 272.716 258.889,271.926 259.185,271.481 259.630 M167.034 260.720 C 168.174 261.525,168.693 263.215,168.354 265.018 L 168.098 266.385 166.179 266.147 C 165.123 266.017,163.551 265.811,162.685 265.691 C 161.129 265.474,161.111 265.484,161.111 266.604 C 161.111 268.690,162.446 269.717,165.109 269.679 C 167.932 269.639,168.236 270.401,165.833 271.491 C 161.019 273.677,156.712 269.777,158.129 264.515 C 159.205 260.518,163.910 258.513,167.034 260.720 M258.904 260.193 C 261.233 261.397,262.268 266.048,260.833 268.863 C 258.868 272.716,252.817 272.910,250.885 269.183 C 248.040 263.695,253.607 257.454,258.904 260.193 M189.121 261.526 C 188.914 262.558,188.955 262.593,190.380 262.593 C 191.703 262.593,191.852 262.686,191.852 263.519 C 191.852 264.364,191.712 264.444,190.239 264.444 L 188.626 264.444 188.390 266.944 C 187.958 271.512,188.345 272.482,190.416 272.027 C 191.899 271.701,191.811 272.550,190.252 273.611 C 186.800 275.961,184.995 274.063,185.358 268.464 C 185.612 264.536,185.594 264.385,184.848 264.190 C 183.377 263.805,183.975 262.714,186.389 261.377 C 188.971 259.947,189.431 259.972,189.121 261.526 M246.927 264.169 C 247.037 269.202,247.327 270.789,248.177 271.011 C 249.716 271.414,248.982 272.485,246.985 272.750 C 245.938 272.889,244.605 273.098,244.022 273.214 C 242.712 273.476,242.504 272.250,243.720 271.434 C 245.045 270.545,244.022 263.333,242.571 263.333 C 240.936 263.333,241.793 261.976,243.796 261.393 C 247.001 260.460,246.843 260.320,246.927 264.169 M175.033 262.037 C 174.753 263.154,174.835 263.166,176.380 262.224 C 177.959 261.261,179.648 261.283,180.921 262.285 C 182.033 263.159,182.026 262.981,181.251 270.093 C 181.034 272.089,181.068 272.222,181.806 272.222 C 182.669 272.222,182.695 272.264,182.368 273.118 C 182.128 273.744,180.008 273.909,177.824 273.472 C 176.577 273.223,176.301 272.464,177.262 271.926 C 178.604 271.175,179.000 264.728,177.744 264.056 C 176.566 263.426,174.951 264.226,174.682 265.573 C 174.000 268.981,173.967 271.481,174.604 271.481 C 175.043 271.481,175.201 271.728,175.118 272.289 C 175.007 273.048,170.652 273.410,169.583 272.749 C 169.122 272.464,169.685 271.183,170.347 271.010 C 171.647 270.670,172.007 263.187,170.739 262.855 C 168.775 262.342,170.568 261.223,173.466 261.154 C 175.208 261.112,175.258 261.141,175.033 262.037 M236.296 262.804 L 236.296 264.127 237.544 262.804 C 239.683 260.536,240.741 260.894,240.741 263.889 C 240.741 266.210,240.708 266.296,239.815 266.296 C 239.145 266.296,238.889 266.097,238.889 265.577 C 238.889 264.523,238.205 264.278,237.370 265.034 C 236.737 265.606,236.653 266.098,236.745 268.681 L 236.852 271.667 238.073 271.784 C 239.142 271.887,239.513 272.860,238.750 273.561 C 238.132 274.130,232.593 273.883,232.593 273.287 C 232.593 272.892,232.843 272.473,233.148 272.356 C 234.366 271.889,233.598 264.323,232.315 264.141 C 230.038 263.818,232.678 261.947,236.019 261.517 C 236.171 261.498,236.296 262.077,236.296 262.804 M162.094 262.529 C 161.117 263.609,161.365 264.011,163.176 264.283 C 165.259 264.595,165.878 264.151,165.257 262.788 C 164.737 261.645,163.021 261.505,162.094 262.529 M253.915 262.434 C 252.482 263.867,253.818 269.365,255.716 269.842 C 257.891 270.387,258.840 268.764,258.199 265.596 C 257.497 262.125,255.614 260.735,253.915 262.434 M227.696 263.454 C 228.539 264.297,228.616 264.662,228.658 268.018 L 228.704 271.667 229.815 271.696 C 231.093 271.729,231.121 272.311,229.908 273.611 C 228.843 274.753,227.228 274.709,226.447 273.518 L 225.840 272.591 224.541 273.732 C 222.621 275.417,220.431 274.647,219.678 272.020 C 219.106 270.027,219.686 269.356,222.763 268.451 C 225.313 267.701,225.556 267.546,225.556 266.667 C 225.556 264.851,223.522 264.204,221.481 265.370 C 220.253 266.072,220.120 266.056,219.890 265.175 C 219.317 262.983,225.797 261.554,227.696 263.454 M201.782 263.516 C 202.926 264.479,203.561 266.476,203.143 267.794 C 202.936 268.446,202.562 268.519,199.419 268.519 C 195.647 268.519,195.616 268.540,196.464 270.570 C 197.161 272.238,198.500 272.778,200.618 272.245 C 202.637 271.737,202.593 271.729,202.593 272.585 C 202.593 275.441,195.462 275.391,193.713 272.522 C 190.422 267.124,197.147 259.617,201.782 263.516 M209.630 263.519 C 209.630 264.028,209.724 264.444,209.840 264.444 C 209.955 264.444,210.596 264.028,211.263 263.519 C 214.734 260.871,216.832 263.016,216.616 268.989 C 216.479 272.767,216.541 272.963,218.064 273.558 C 219.241 274.018,217.273 274.815,214.960 274.815 C 211.965 274.815,211.522 274.404,212.963 272.963 C 214.587 271.339,213.724 265.185,211.872 265.185 C 209.756 265.185,208.315 271.278,210.027 272.990 C 211.446 274.408,210.986 274.815,207.963 274.815 C 204.926 274.815,204.480 274.409,205.926 272.963 C 207.276 271.613,206.820 264.815,205.380 264.815 C 205.069 264.815,204.815 264.500,204.815 264.116 C 204.815 263.427,204.880 263.405,209.352 262.640 C 209.505 262.614,209.630 263.009,209.630 263.519 M197.166 264.989 C 195.452 266.189,195.796 267.037,197.998 267.037 C 199.840 267.037,200.000 266.969,200.000 266.185 C 200.000 264.548,198.624 263.967,197.166 264.989 M223.590 269.697 C 222.756 270.001,222.573 270.270,222.664 271.056 C 222.891 273.012,225.926 272.361,225.926 270.357 C 225.926 269.152,225.451 269.018,223.590 269.697 M116.132 277.744 C 115.691 278.457,126.534 292.652,133.556 300.556 C 150.975 320.160,175.034 339.206,195.428 349.535 C 205.726 354.751,207.583 354.527,220.556 346.512 C 227.136 342.446,235.823 336.967,237.161 336.038 C 237.806 335.591,239.667 334.306,241.296 333.184 C 242.926 332.061,245.843 329.886,247.778 328.349 C 249.713 326.813,251.713 325.264,252.222 324.908 C 253.733 323.850,259.913 318.629,263.889 315.050 C 273.746 306.181,282.076 296.912,290.400 285.556 C 292.415 282.806,294.316 280.264,294.625 279.907 C 295.316 279.108,295.391 279.105,292.539 279.987 C 290.113 280.736,287.432 283.004,285.738 285.741 C 281.586 292.446,263.473 311.172,252.690 319.905 C 236.339 333.149,210.605 349.259,205.801 349.259 C 200.881 349.259,175.044 333.896,163.333 324.007 C 162.417 323.232,159.583 320.907,157.037 318.840 C 148.287 311.735,132.632 295.155,125.981 285.950 C 121.711 280.040,117.092 276.191,116.132 277.744 M209.333 297.852 C 208.214 298.972,209.266 301.024,210.723 300.561 C 211.446 300.332,211.667 299.743,211.488 298.519 C 211.336 297.469,210.099 297.086,209.333 297.852 M237.918 298.611 C 237.577 299.273,237.053 300.190,236.754 300.648 C 235.763 302.169,237.269 301.640,239.275 299.764 C 241.454 297.726,241.528 297.407,239.824 297.407 C 238.747 297.407,238.437 297.603,237.918 298.611 M169.506 298.765 C 169.034 299.238,169.265 299.551,170.274 299.804 C 171.796 300.186,171.840 300.403,171.846 307.524 C 171.852 314.586,171.650 315.556,170.172 315.556 C 169.608 315.556,169.259 315.768,169.259 316.111 C 169.259 316.559,169.835 316.667,172.222 316.667 C 175.287 316.667,176.135 316.148,174.352 315.366 C 173.534 315.007,173.517 314.869,173.437 307.963 L 173.356 300.926 176.215 308.704 C 180.016 319.044,179.724 319.039,183.333 308.839 L 186.111 300.991 186.212 307.762 C 186.314 314.593,186.159 315.556,184.955 315.556 C 184.674 315.556,184.444 315.806,184.444 316.111 C 184.444 316.564,185.062 316.667,187.778 316.667 C 191.186 316.667,192.539 315.934,190.050 315.436 C 188.668 315.160,188.519 314.374,188.519 307.385 C 188.519 301.323,188.777 300.135,190.172 299.785 C 192.380 299.231,191.198 298.484,188.290 298.596 L 185.468 298.704 183.012 305.647 C 181.661 309.466,180.464 312.591,180.353 312.591 C 180.241 312.592,179.008 309.426,177.612 305.556 L 175.074 298.519 172.414 298.519 C 170.950 298.519,169.642 298.630,169.506 298.765 M196.296 303.206 C 194.456 303.947,193.822 305.937,195.193 306.671 C 196.098 307.155,196.667 306.867,196.667 305.925 C 196.667 305.133,197.985 304.074,198.971 304.074 C 200.193 304.074,201.111 305.425,201.111 307.222 L 201.111 308.889 199.352 308.891 C 195.500 308.895,193.333 310.319,193.333 312.846 C 193.333 316.751,197.501 318.362,200.226 315.511 L 201.296 314.390 201.483 315.436 C 201.705 316.675,205.185 317.329,205.185 316.131 C 205.185 315.815,204.931 315.556,204.620 315.556 C 203.686 315.556,203.333 313.879,203.333 309.441 C 203.333 303.979,202.858 303.246,199.217 303.086 C 197.916 303.029,196.602 303.083,196.296 303.206 M221.062 303.501 C 220.526 303.804,219.962 304.348,219.808 304.711 C 219.565 305.284,219.496 305.249,219.286 304.444 C 219.064 303.599,218.844 303.509,216.744 303.408 C 214.202 303.286,213.813 303.663,215.648 304.470 L 216.852 305.000 216.952 312.731 C 217.056 320.764,216.938 321.481,215.510 321.481 C 215.128 321.481,214.815 321.731,214.815 322.037 C 214.815 322.490,215.432 322.593,218.148 322.593 C 220.864 322.593,221.481 322.490,221.481 322.037 C 221.481 321.731,221.181 321.481,220.815 321.481 C 219.579 321.481,219.259 320.688,219.259 317.621 C 219.259 314.872,219.301 314.709,219.816 315.445 C 221.540 317.906,225.948 317.252,227.467 314.309 C 230.519 308.399,225.972 300.726,221.062 303.501 M207.037 303.683 C 207.037 303.876,207.495 304.253,208.056 304.521 L 209.074 305.009 209.178 309.544 C 209.292 314.521,209.017 315.556,207.580 315.556 C 207.015 315.556,206.667 315.768,206.667 316.111 C 206.667 316.568,207.325 316.667,210.370 316.667 C 213.416 316.667,214.074 316.568,214.074 316.111 C 214.074 315.768,213.726 315.556,213.161 315.556 C 211.731 315.556,211.481 314.542,211.481 308.728 L 211.481 303.333 209.259 303.333 C 208.037 303.333,207.037 303.491,207.037 303.683 M230.370 303.713 C 230.370 303.922,230.764 304.242,231.246 304.425 C 232.468 304.890,232.593 305.424,232.593 310.187 C 232.593 314.118,232.651 314.458,233.511 315.479 C 235.057 317.316,238.868 317.323,240.151 315.492 C 240.699 314.710,240.700 314.710,240.946 315.687 C 241.239 316.856,245.185 317.250,245.185 316.111 C 245.185 315.806,244.885 315.556,244.519 315.556 C 243.129 315.556,242.963 314.854,242.963 309.000 L 242.963 303.333 240.741 303.333 C 238.421 303.333,237.833 303.832,239.434 304.441 C 240.626 304.894,240.865 305.968,240.672 310.010 C 240.475 314.124,239.690 315.291,237.243 315.110 C 235.102 314.951,234.827 314.172,234.820 308.241 L 234.815 303.333 232.593 303.333 C 231.322 303.333,230.370 303.496,230.370 303.713 M224.617 305.324 C 227.353 308.060,225.901 315.000,222.593 315.000 C 219.872 315.000,218.499 310.969,219.727 306.583 C 220.287 304.581,223.140 303.847,224.617 305.324 M201.021 311.921 C 200.649 315.787,195.915 316.774,195.932 312.981 C 195.941 310.845,196.943 310.030,199.584 310.011 L 201.205 310.000 201.021 311.921 "
			stroke="none"
			fill="#ffffff"
			fill-rule="evenodd"
		></path>
		<path
			id="path1"
			d="M63.369 25.608 C 63.086 26.248,62.721 27.957,62.559 29.405 C 62.397 30.852,62.092 32.704,61.882 33.519 C 61.671 34.333,61.495 36.385,61.490 38.077 C 61.484 40.439,61.374 41.090,61.019 40.877 C 60.719 40.697,60.740 40.825,61.077 41.242 C 61.733 42.050,61.418 58.949,60.566 68.704 C 59.930 75.970,59.797 101.855,60.367 107.222 C 60.562 109.056,60.981 114.806,61.298 120.000 C 61.830 128.723,62.394 134.937,62.776 136.296 C 62.862 136.602,63.278 140.185,63.702 144.259 C 64.125 148.333,64.627 152.250,64.817 152.963 C 65.007 153.676,65.426 156.093,65.748 158.333 C 66.360 162.589,66.594 163.845,69.655 179.259 C 71.263 187.356,72.240 191.507,75.365 203.519 C 76.254 206.936,78.101 213.180,78.824 215.210 C 79.852 218.102,80.868 222.218,80.616 222.471 C 79.603 223.483,83.457 226.187,87.688 227.432 C 90.167 228.162,90.205 228.599,87.044 220.000 C 85.374 215.459,83.653 210.072,81.719 203.333 C 80.707 199.807,78.258 189.639,77.215 184.630 C 76.664 181.981,75.988 178.898,75.713 177.778 C 75.439 176.657,74.951 174.074,74.630 172.037 C 74.308 170.000,73.809 167.167,73.521 165.741 C 72.974 163.029,70.205 142.684,69.816 138.519 C 69.693 137.194,69.309 134.194,68.963 131.852 C 68.020 125.474,68.014 66.350,68.955 60.185 C 69.297 57.944,69.678 54.278,69.801 52.037 C 70.047 47.561,71.003 38.340,71.327 37.315 C 71.659 36.261,72.862 36.557,76.060 38.477 C 87.386 45.279,105.961 51.704,118.996 53.330 C 147.455 56.878,178.501 51.633,201.351 39.417 C 205.858 37.008,206.723 36.938,210.000 38.720 C 215.474 41.698,225.198 45.924,229.630 47.251 C 230.546 47.526,232.463 48.158,233.889 48.656 C 240.964 51.127,249.546 53.115,255.926 53.759 C 262.048 54.378,279.757 54.377,285.000 53.758 C 292.677 52.852,299.075 51.821,301.667 51.073 C 316.063 46.920,328.221 42.344,335.087 38.494 C 337.442 37.174,338.442 37.103,338.677 38.241 C 339.242 40.978,340.263 49.273,340.739 55.000 C 340.943 57.444,341.279 60.376,341.487 61.514 C 342.960 69.572,342.822 133.392,341.310 143.463 C 341.000 145.530,340.413 149.889,340.006 153.148 C 339.599 156.407,338.778 161.824,338.182 165.185 C 334.788 184.314,334.360 186.289,330.795 199.259 C 329.037 205.656,323.781 220.339,322.856 221.437 C 322.578 221.767,322.136 222.787,321.874 223.704 C 321.613 224.620,321.069 226.019,320.665 226.813 C 319.163 229.763,318.659 233.653,319.985 232.055 C 320.247 231.739,320.666 231.481,320.916 231.481 C 321.970 231.481,329.692 227.344,330.993 226.082 C 331.771 225.328,332.177 224.841,331.895 225.000 C 331.223 225.380,331.600 222.127,332.638 218.590 C 333.038 217.227,333.599 215.278,333.884 214.259 C 334.170 213.241,334.679 211.491,335.014 210.370 C 335.350 209.250,335.774 207.610,335.955 206.727 C 336.137 205.843,336.717 203.759,337.243 202.097 C 338.731 197.401,338.832 197.031,339.431 194.074 C 339.740 192.546,340.258 190.380,340.581 189.259 C 340.904 188.139,341.390 186.306,341.661 185.185 C 341.932 184.065,342.437 181.981,342.783 180.556 C 343.129 179.130,343.537 177.213,343.689 176.296 C 343.842 175.380,344.143 173.880,344.359 172.963 C 344.576 172.046,345.032 169.630,345.374 167.593 C 345.716 165.556,346.228 162.556,346.511 160.926 C 347.087 157.618,347.683 152.695,348.147 147.407 C 348.317 145.472,348.621 143.306,348.822 142.593 C 349.023 141.880,349.288 133.963,349.411 125.000 C 349.533 116.037,349.800 104.460,350.004 99.272 C 350.249 93.034,350.250 87.141,350.009 81.865 C 349.808 77.478,349.549 69.306,349.433 63.704 C 349.224 53.573,348.478 41.262,347.795 36.667 C 347.599 35.343,347.277 32.759,347.081 30.926 C 346.422 24.764,345.050 23.679,340.842 25.988 C 339.666 26.634,338.089 27.466,337.338 27.837 C 336.587 28.209,335.869 28.681,335.742 28.886 C 335.616 29.091,335.264 29.259,334.960 29.259 C 334.408 29.259,333.914 29.486,329.074 31.958 C 325.269 33.901,319.795 35.940,313.889 37.614 C 312.667 37.961,311.262 38.399,310.767 38.589 C 310.273 38.778,309.106 39.090,308.175 39.281 C 307.243 39.472,305.398 39.888,304.074 40.204 C 299.355 41.331,294.101 42.125,283.519 43.308 C 281.481 43.536,278.473 43.884,276.833 44.083 C 273.021 44.545,266.381 44.547,263.726 44.088 C 262.593 43.892,260.583 43.543,259.259 43.313 C 257.935 43.082,255.852 42.745,254.630 42.563 C 251.199 42.051,247.287 41.150,241.852 39.619 C 238.958 38.804,238.504 38.646,236.191 37.644 C 235.420 37.310,234.472 37.037,234.083 37.037 C 233.695 37.037,233.288 36.893,233.180 36.717 C 233.071 36.542,232.186 36.178,231.213 35.908 C 229.666 35.480,222.251 32.194,220.185 31.021 C 218.470 30.047,216.665 29.259,216.151 29.259 C 215.847 29.259,215.490 29.082,215.356 28.866 C 214.760 27.901,207.442 24.815,205.749 24.815 C 204.268 24.815,201.355 25.867,200.741 26.624 C 200.442 26.992,199.204 27.731,197.222 28.724 C 196.204 29.234,194.537 30.083,193.519 30.612 C 192.500 31.140,191.083 31.843,190.370 32.175 C 189.657 32.506,188.491 33.121,187.778 33.540 C 186.061 34.549,183.628 35.408,181.025 35.925 C 179.857 36.157,178.806 36.502,178.688 36.692 C 178.571 36.882,178.138 37.037,177.726 37.037 C 177.313 37.037,175.782 37.447,174.321 37.948 C 172.861 38.449,170.750 39.019,169.630 39.214 C 168.509 39.410,166.593 39.835,165.370 40.159 C 161.102 41.289,155.321 42.191,145.000 43.337 C 142.963 43.563,140.784 43.905,140.159 44.096 C 138.676 44.550,131.178 44.545,128.541 44.087 C 127.408 43.891,124.981 43.548,123.148 43.325 C 114.856 42.316,106.181 40.784,102.037 39.597 C 96.880 38.119,88.200 35.227,86.596 34.452 C 85.743 34.041,84.869 33.702,84.653 33.700 C 84.436 33.698,83.509 33.299,82.593 32.815 C 81.676 32.330,79.593 31.249,77.963 30.414 C 76.333 29.578,73.945 28.310,72.657 27.596 C 70.350 26.318,65.451 24.444,64.414 24.444 C 64.123 24.444,63.653 24.968,63.369 25.608 M107.412 276.019 C 107.417 276.985,109.126 280.044,111.412 283.180 C 112.290 284.385,114.607 287.620,116.560 290.370 C 131.884 311.949,153.749 333.066,176.168 347.939 C 184.157 353.240,186.113 354.378,197.778 360.521 C 206.306 365.012,206.914 365.370,206.767 365.810 C 206.689 366.043,207.015 366.127,207.578 366.019 C 208.095 365.920,208.519 365.712,208.519 365.556 C 208.519 365.399,208.810 365.171,209.167 365.048 C 209.523 364.924,210.315 364.488,210.926 364.078 C 211.537 363.667,212.537 363.080,213.148 362.771 C 214.582 362.048,215.353 361.568,217.491 360.068 C 218.453 359.392,220.370 358.247,221.750 357.522 C 223.130 356.797,224.509 355.995,224.815 355.740 C 225.602 355.083,230.386 351.852,230.572 351.852 C 230.657 351.852,231.938 351.046,233.419 350.061 C 234.900 349.076,236.403 348.165,236.759 348.036 C 237.116 347.907,237.407 347.629,237.407 347.419 C 237.407 347.209,237.581 347.037,237.794 347.037 C 238.006 347.037,239.112 346.329,240.252 345.463 C 242.626 343.660,245.693 341.503,246.807 340.852 C 247.225 340.608,248.906 339.313,250.543 337.975 C 252.179 336.638,255.766 333.754,258.512 331.568 C 264.323 326.941,277.694 313.962,283.104 307.696 C 287.864 302.182,294.074 294.253,294.074 293.690 C 294.074 293.550,294.592 292.787,295.225 291.995 C 295.858 291.203,296.520 290.181,296.697 289.722 C 296.874 289.264,297.189 288.889,297.398 288.889 C 297.607 288.889,297.778 288.639,297.778 288.333 C 297.778 288.028,297.903 287.777,298.056 287.775 C 298.208 287.774,298.615 287.316,298.958 286.757 C 299.302 286.198,300.063 285.074,300.649 284.259 C 305.885 276.977,305.766 277.286,303.241 277.517 C 298.713 277.930,294.391 279.375,293.912 280.634 C 292.794 283.577,276.683 302.982,270.125 309.286 C 264.913 314.295,254.901 323.032,252.222 324.908 C 251.713 325.264,249.713 326.813,247.778 328.349 C 245.843 329.886,242.926 332.061,241.296 333.184 C 239.667 334.306,237.806 335.591,237.161 336.038 C 235.823 336.967,227.136 342.446,220.556 346.512 C 207.583 354.527,205.726 354.751,195.428 349.535 C 181.901 342.684,160.130 327.182,148.747 316.296 C 136.952 305.017,118.952 283.961,116.382 278.436 C 115.280 276.066,107.400 273.943,107.412 276.019 "
			stroke="none"
			fill="#dc1d35"
			fill-rule="evenodd"
		></path>
		<path
			id="path2"
			d="M47.698 36.110 C 46.628 36.713,46.302 37.605,45.596 41.852 C 44.709 47.186,44.045 53.475,43.730 59.520 C 43.547 63.025,43.302 66.048,43.184 66.239 C 41.831 68.427,41.841 124.921,43.194 127.111 C 43.326 127.324,43.570 130.270,43.737 133.657 C 44.034 139.678,44.871 148.340,45.585 152.778 C 45.782 154.000,46.107 156.417,46.307 158.148 C 47.307 166.789,49.336 179.329,50.802 185.926 C 51.006 186.843,51.406 189.009,51.691 190.741 C 51.976 192.472,52.462 195.222,52.770 196.852 C 53.078 198.481,53.514 201.065,53.740 202.593 C 53.965 204.120,54.299 205.529,54.482 205.722 C 55.350 206.641,54.789 206.964,52.664 206.772 C 50.955 206.617,50.384 206.706,49.886 207.204 C 49.199 207.891,49.016 210.547,49.630 210.926 C 49.833 211.052,50.000 211.445,50.000 211.800 C 50.000 212.154,50.188 212.633,50.419 212.863 C 50.731 213.176,52.120 216.627,52.210 217.315 C 52.217 217.366,51.623 217.407,50.891 217.407 C 48.578 217.407,46.007 220.427,47.685 221.173 C 47.838 221.241,48.292 221.963,48.694 222.778 C 49.096 223.593,49.801 224.770,50.260 225.395 C 52.080 227.869,51.746 228.300,47.778 228.597 C 45.843 228.742,42.343 229.020,40.000 229.214 C 37.657 229.409,35.558 229.581,35.335 229.599 C 33.751 229.720,31.933 233.266,32.582 234.971 C 32.954 235.951,35.141 238.331,35.892 238.574 C 36.657 238.821,36.102 240.635,35.170 240.931 C 34.755 241.062,33.979 241.830,33.445 242.637 L 32.474 244.105 33.552 245.623 C 34.268 246.631,35.499 247.609,37.222 248.536 C 40.060 250.063,42.253 251.257,44.815 252.670 C 46.911 253.825,48.217 254.492,50.556 255.602 C 51.574 256.086,52.463 256.606,52.531 256.759 C 52.599 256.912,52.860 257.037,53.111 257.037 C 53.363 257.037,54.546 257.537,55.741 258.148 C 56.936 258.759,58.112 259.259,58.356 259.259 C 58.599 259.259,59.006 259.509,59.259 259.815 C 59.513 260.120,59.949 260.370,60.230 260.370 C 60.510 260.370,61.781 260.847,63.055 261.430 C 64.328 262.012,66.287 262.855,67.407 263.301 C 70.685 264.608,70.839 264.674,72.748 265.562 C 74.567 266.409,74.935 266.661,77.272 268.647 C 78.540 269.725,78.825 270.159,80.589 273.704 C 81.146 274.824,82.450 277.074,83.486 278.704 C 86.164 282.916,86.257 283.067,86.673 283.889 C 86.879 284.296,87.337 285.072,87.691 285.612 C 88.044 286.153,88.984 287.736,89.780 289.131 C 90.575 290.526,91.673 292.250,92.218 292.963 C 92.764 293.676,93.316 294.551,93.445 294.907 C 93.575 295.264,93.852 295.556,94.062 295.556 C 94.273 295.556,94.444 295.732,94.444 295.948 C 94.444 296.282,96.157 298.781,97.402 300.262 C 97.609 300.508,97.778 300.820,97.778 300.954 C 97.778 301.225,99.545 303.443,100.760 304.697 C 101.191 305.142,102.196 306.392,102.993 307.475 C 103.790 308.558,104.692 309.778,104.996 310.185 C 113.930 322.136,126.480 334.781,143.333 348.814 C 144.046 349.408,145.321 350.326,146.167 350.854 C 147.012 351.382,147.762 351.948,147.833 352.111 C 148.142 352.817,157.125 359.259,157.801 359.259 C 157.992 359.259,158.148 359.401,158.148 359.574 C 158.148 359.887,160.857 361.716,163.333 363.074 C 164.046 363.465,164.893 364.016,165.214 364.300 C 165.536 364.583,165.939 364.815,166.111 364.815 C 166.283 364.815,166.686 365.048,167.008 365.333 C 167.329 365.618,168.718 366.452,170.093 367.185 C 171.468 367.918,173.634 369.075,174.907 369.756 C 176.181 370.437,178.306 371.472,179.630 372.056 C 180.954 372.641,182.120 373.209,182.222 373.319 C 183.187 374.362,186.074 375.185,188.766 375.185 C 192.141 375.185,193.193 374.743,201.772 369.726 C 203.256 368.858,204.590 368.144,204.735 368.140 C 205.362 368.120,206.846 366.657,206.849 366.056 C 206.852 365.323,206.574 365.153,197.778 360.521 C 186.113 354.378,184.157 353.240,176.168 347.939 C 153.749 333.066,131.884 311.949,116.560 290.370 C 114.607 287.620,112.290 284.385,111.412 283.180 C 107.239 277.456,106.496 275.185,108.795 275.185 C 110.337 275.185,115.926 276.924,115.926 277.403 C 115.926 277.571,116.253 277.623,116.652 277.519 C 118.175 277.120,122.316 280.860,125.981 285.945 C 132.584 295.103,148.279 311.728,157.037 318.840 C 159.583 320.907,162.417 323.232,163.333 324.007 C 175.044 333.896,200.881 349.259,205.801 349.259 C 210.605 349.259,236.339 333.149,252.690 319.905 C 263.731 310.963,281.373 292.668,286.006 285.357 C 288.739 281.044,295.657 277.935,303.333 277.572 C 305.209 277.483,306.383 277.189,308.333 276.322 C 309.282 275.900,312.427 274.961,313.977 274.638 C 314.637 274.500,315.272 274.234,315.388 274.046 C 315.504 273.858,315.917 273.704,316.306 273.704 C 316.694 273.704,317.559 273.475,318.228 273.197 C 319.704 272.581,321.652 271.897,323.148 271.469 C 324.922 270.961,330.805 268.898,332.222 268.287 C 333.887 267.569,334.625 267.270,336.667 266.486 C 337.583 266.134,338.776 265.614,339.316 265.330 C 339.857 265.047,340.581 264.815,340.926 264.815 C 341.270 264.815,341.995 264.585,342.535 264.304 C 343.076 264.024,343.935 263.616,344.444 263.398 C 344.954 263.181,346.666 262.411,348.249 261.687 C 349.832 260.963,351.245 260.370,351.390 260.370 C 351.689 260.370,358.607 256.950,358.889 256.663 C 358.991 256.559,360.015 256.006,361.165 255.435 C 362.315 254.863,363.806 253.990,364.478 253.494 C 365.150 252.998,365.977 252.593,366.317 252.593 C 366.656 252.593,367.499 252.206,368.189 251.734 C 368.880 251.262,370.580 250.095,371.968 249.142 C 373.356 248.188,374.642 247.407,374.827 247.407 C 375.943 247.407,378.148 245.784,378.148 244.963 C 378.148 243.958,376.961 242.593,376.087 242.593 C 373.692 242.593,373.925 241.938,377.764 237.887 C 381.424 234.025,381.481 233.936,381.481 232.167 L 381.481 230.370 372.315 230.367 C 367.273 230.365,362.304 230.262,361.272 230.138 L 359.395 229.913 360.754 225.790 C 361.501 223.522,362.232 220.833,362.378 219.815 C 362.524 218.796,362.882 217.141,363.173 216.136 C 365.330 208.708,361.598 207.688,352.963 213.344 C 352.657 213.545,352.157 213.820,351.852 213.957 C 351.546 214.093,351.213 214.321,351.111 214.463 C 351.009 214.604,350.093 215.098,349.075 215.559 C 348.057 216.021,346.724 216.773,346.112 217.230 C 345.500 217.688,344.583 218.186,344.074 218.338 C 343.213 218.595,339.542 220.492,338.704 221.113 C 338.500 221.264,337.167 222.011,335.741 222.772 C 334.315 223.534,332.361 224.891,331.398 225.788 C 329.803 227.276,322.068 231.481,320.929 231.481 C 320.685 231.481,320.184 231.815,319.815 232.222 C 318.941 233.188,319.165 233.158,321.540 231.991 C 322.628 231.456,324.019 230.810,324.630 230.555 C 328.989 228.736,331.791 227.252,342.778 220.938 C 344.611 219.885,348.381 217.920,351.156 216.571 C 353.931 215.222,357.244 213.445,358.518 212.622 C 359.792 211.799,360.980 211.215,361.158 211.325 C 361.582 211.587,361.573 213.170,361.142 213.987 C 360.589 215.035,359.750 217.120,359.247 218.694 C 358.988 219.504,357.633 222.737,356.234 225.880 C 354.836 229.022,353.792 231.693,353.914 231.815 C 354.035 231.937,359.732 232.120,366.574 232.222 C 375.206 232.351,379.055 232.533,379.150 232.818 C 379.291 233.242,371.729 240.186,369.410 241.762 C 364.113 245.361,339.898 256.113,328.704 259.836 C 326.667 260.514,323.500 261.584,321.667 262.214 C 301.583 269.123,276.183 274.341,246.481 277.659 L 237.222 278.694 208.519 278.699 C 182.935 278.703,179.381 278.633,175.822 278.056 C 173.626 277.699,171.126 277.409,170.267 277.412 C 166.315 277.423,150.254 275.032,135.556 272.243 C 123.972 270.045,103.974 264.915,97.963 262.599 C 97.556 262.442,95.139 261.629,92.593 260.792 C 76.351 255.455,63.754 250.008,45.499 240.430 C 31.322 232.991,31.160 232.310,43.333 231.313 C 49.594 230.800,60.260 229.072,61.011 228.448 C 61.796 227.796,61.622 227.402,57.499 220.529 C 53.050 213.110,52.024 211.051,52.352 210.197 C 52.962 208.607,54.404 209.183,59.495 213.048 C 61.300 214.419,64.278 216.354,66.111 217.347 C 79.441 224.568,84.849 227.196,87.870 227.919 C 89.710 228.359,88.938 227.895,86.119 226.867 C 82.381 225.503,80.231 223.940,80.518 222.795 C 80.736 221.927,79.813 217.852,78.710 214.815 C 78.082 213.087,76.206 206.749,75.365 203.519 C 72.240 191.507,71.263 187.356,69.655 179.259 C 66.594 163.845,66.360 162.589,65.748 158.333 C 65.426 156.093,65.007 153.676,64.817 152.963 C 64.627 152.250,64.125 148.333,63.702 144.259 C 63.278 140.185,62.862 136.602,62.776 136.296 C 62.394 134.937,61.830 128.723,61.298 120.000 C 60.981 114.806,60.562 109.056,60.367 107.222 C 59.798 101.861,59.930 75.972,60.565 68.704 C 60.867 65.241,61.223 57.863,61.357 52.309 C 61.624 41.249,61.530 40.603,59.602 40.179 C 59.034 40.054,58.371 39.713,58.128 39.421 C 57.886 39.128,57.388 38.889,57.023 38.889 C 56.657 38.889,56.302 38.764,56.235 38.611 C 55.341 36.601,49.738 34.959,47.698 36.110 M203.704 42.663 C 203.194 42.901,200.194 44.305,197.037 45.782 C 187.305 50.335,176.735 53.790,167.074 55.576 C 162.416 56.436,158.521 57.035,155.299 57.385 C 153.427 57.588,150.844 57.925,149.559 58.134 C 146.554 58.621,129.107 58.633,126.777 58.149 C 125.800 57.946,123.667 57.619,122.037 57.422 C 118.157 56.953,112.963 56.067,110.185 55.398 C 108.963 55.104,106.546 54.535,104.815 54.133 C 103.083 53.730,100.583 53.048,99.259 52.616 C 97.935 52.185,96.269 51.650,95.556 51.429 C 94.843 51.207,93.759 50.800,93.148 50.523 C 92.537 50.247,90.704 49.531,89.074 48.933 C 85.303 47.549,82.044 46.167,81.416 45.686 C 81.146 45.480,80.259 45.029,79.444 44.683 C 78.630 44.337,77.479 43.802,76.886 43.493 C 75.039 42.528,74.620 44.263,73.349 58.148 C 68.957 106.107,72.808 155.996,84.228 199.074 C 84.714 200.907,85.456 203.704,85.877 205.290 C 86.816 208.826,88.023 212.573,90.557 219.815 C 91.626 222.870,92.619 225.954,92.765 226.667 C 93.195 228.767,94.693 230.732,96.416 231.457 C 97.778 232.030,101.696 233.643,105.000 234.991 C 106.738 235.700,108.114 236.160,111.111 237.034 C 112.639 237.480,115.056 238.303,116.481 238.864 C 117.907 239.425,119.991 240.143,121.111 240.460 C 123.916 241.254,127.205 242.161,129.630 242.808 C 130.750 243.108,132.500 243.594,133.519 243.888 C 134.537 244.183,136.287 244.668,137.407 244.966 C 138.528 245.265,140.944 245.922,142.778 246.428 C 144.611 246.934,147.028 247.451,148.148 247.577 C 149.269 247.702,150.852 247.956,151.667 248.140 C 153.127 248.470,155.674 248.985,161.841 250.196 C 163.567 250.535,166.650 250.949,168.693 251.115 C 174.365 251.578,180.859 252.191,185.370 252.690 C 190.927 253.305,223.023 253.306,229.259 252.692 C 231.806 252.441,236.139 252.055,238.889 251.834 C 241.639 251.613,245.639 251.283,247.778 251.101 C 251.504 250.784,256.366 250.038,260.074 249.216 C 261.829 248.827,263.205 248.596,269.630 247.610 C 272.961 247.099,274.288 246.815,280.000 245.392 C 281.324 245.063,283.074 244.640,283.889 244.454 C 284.704 244.267,286.704 243.760,288.333 243.326 C 289.963 242.893,292.213 242.309,293.333 242.029 C 297.713 240.934,299.592 240.392,303.447 239.109 C 305.649 238.377,307.669 237.778,307.937 237.778 C 308.402 237.778,311.051 236.734,312.905 235.821 C 314.703 234.935,318.730 224.910,325.880 203.519 C 334.625 177.354,338.240 148.595,338.262 105.000 C 338.272 85.768,338.079 81.008,336.279 56.061 C 335.261 41.945,335.564 42.660,331.357 44.479 C 325.933 46.825,320.464 49.012,317.407 50.057 C 315.676 50.649,313.926 51.288,313.519 51.477 C 312.213 52.082,306.575 53.667,303.519 54.288 C 301.889 54.619,299.472 55.120,298.148 55.401 C 294.637 56.146,289.161 57.029,285.556 57.430 C 283.824 57.623,281.502 57.946,280.395 58.149 C 277.039 58.765,259.322 58.614,255.206 57.934 C 250.221 57.111,245.012 56.068,242.407 55.371 C 241.185 55.044,239.269 54.563,238.148 54.301 C 235.853 53.766,233.705 53.087,231.981 52.350 C 231.339 52.076,230.649 51.852,230.447 51.852 C 229.994 51.852,214.469 45.341,210.948 43.674 C 208.148 42.348,205.246 41.943,203.704 42.663 M213.990 96.063 C 222.020 97.353,228.573 99.460,235.736 103.053 L 239.768 105.076 244.446 102.735 C 272.289 88.806,292.622 98.710,290.005 124.926 C 289.590 129.082,288.466 132.864,287.540 133.219 C 286.593 133.583,286.561 133.053,287.353 130.109 C 294.316 104.214,274.738 91.349,246.913 103.535 C 244.721 104.495,242.563 105.575,242.117 105.937 L 241.305 106.594 244.191 109.291 C 253.155 117.669,254.322 131.645,246.691 139.220 C 243.733 142.156,239.966 144.160,234.444 145.735 C 231.898 146.461,229.653 147.105,229.456 147.166 C 229.258 147.227,230.929 148.229,233.169 149.392 C 240.010 152.947,244.421 157.801,246.351 163.900 L 247.222 166.653 251.296 166.674 L 255.370 166.694 273.889 191.121 C 284.074 204.556,292.532 215.550,292.685 215.552 C 292.838 215.554,292.963 205.556,292.963 193.333 L 292.963 171.111 288.704 171.111 L 284.444 171.111 284.444 168.889 L 284.444 166.667 295.370 166.667 L 306.296 166.667 306.296 168.889 L 306.296 171.111 302.222 171.111 L 298.148 171.111 298.148 200.756 L 298.148 230.402 295.405 230.293 L 292.663 230.185 272.964 204.259 C 262.130 190.000,253.197 178.264,253.114 178.179 C 253.031 178.094,252.963 188.552,252.963 201.420 L 252.963 224.815 257.037 224.815 L 261.111 224.815 261.111 227.037 L 261.111 229.259 250.185 229.259 L 239.259 229.259 239.259 227.037 L 239.259 224.815 243.519 224.815 L 247.778 224.815 247.739 200.278 C 247.705 178.212,247.647 175.927,247.164 177.593 C 241.439 197.359,217.321 210.950,201.250 203.467 C 185.407 196.089,196.797 166.899,217.407 162.058 C 229.643 159.184,236.992 170.826,230.228 182.367 C 227.467 187.079,226.415 185.753,228.974 180.787 C 236.167 166.825,223.607 158.407,209.470 167.715 C 194.261 177.729,190.439 198.283,203.087 202.039 C 214.168 205.330,228.310 196.849,235.204 182.778 C 242.280 168.333,240.017 155.796,229.165 149.327 L 227.105 148.099 222.719 148.545 C 216.287 149.200,213.554 148.504,212.797 146.019 C 212.296 144.376,215.437 144.137,225.590 145.046 C 231.158 145.544,239.046 139.484,242.419 132.115 C 245.714 124.919,244.563 115.424,239.695 109.635 C 238.271 107.943,237.961 108.113,232.306 113.673 C 223.567 122.266,217.000 132.202,206.216 153.148 C 193.063 178.694,187.658 185.293,172.916 193.807 C 151.297 206.293,129.921 207.870,119.130 197.775 C 113.087 192.122,112.780 184.069,118.443 179.750 C 123.668 175.765,129.194 180.227,126.291 186.087 C 124.011 190.689,117.778 190.185,117.778 185.399 C 117.778 183.352,117.205 183.210,116.430 185.065 C 115.270 187.842,116.862 192.873,119.810 195.752 C 129.009 204.733,148.160 204.194,163.143 194.533 C 172.440 188.538,177.237 182.802,194.107 157.503 C 209.473 134.459,222.395 119.024,235.168 108.457 L 237.187 106.786 234.983 105.371 C 220.759 96.242,194.537 94.976,173.704 102.413 C 149.657 110.997,125.866 135.593,124.183 153.608 L 123.967 155.926 130.687 155.926 L 137.407 155.926 137.407 150.741 L 137.407 145.556 140.000 145.556 C 142.579 145.556,142.593 145.561,142.601 146.574 C 142.608 147.387,142.783 147.172,143.467 145.509 C 151.922 124.954,185.286 111.010,193.646 124.537 C 201.648 137.484,184.959 162.922,161.026 174.259 C 144.311 182.177,126.776 177.100,122.332 163.056 L 121.717 161.111 107.340 161.111 L 92.963 161.111 92.963 158.889 L 92.963 156.667 96.852 156.667 L 100.741 156.667 100.741 130.185 L 100.741 103.704 96.852 103.704 L 92.963 103.704 92.963 101.481 L 92.963 99.259 105.000 99.259 L 117.037 99.259 117.037 101.481 L 117.037 103.704 113.148 103.704 L 109.259 103.704 109.259 129.815 L 109.259 155.926 115.150 155.926 L 121.041 155.926 121.075 152.826 C 121.432 119.782,171.450 89.225,213.990 96.063 M178.333 122.002 C 156.414 127.015,134.222 159.635,149.320 164.650 C 151.364 165.329,151.806 165.773,150.764 166.104 C 148.731 166.749,144.817 164.331,143.325 161.509 C 142.940 160.781,142.618 160.394,142.609 160.648 C 142.596 161.006,140.514 161.111,133.478 161.111 L 124.364 161.111 124.610 162.130 C 129.182 181.103,158.184 179.584,179.399 159.261 C 199.444 140.058,198.793 117.322,178.333 122.002 M69.005 229.861 C 68.866 230.223,69.018 230.599,69.387 230.805 C 70.690 231.534,66.139 242.668,64.439 242.908 C 63.605 243.025,62.984 243.533,62.969 244.108 C 62.966 244.229,64.171 244.796,65.648 245.368 C 67.125 245.940,69.287 246.883,70.452 247.463 C 73.324 248.894,73.406 248.868,75.116 246.019 L 76.616 243.519 75.623 243.076 C 74.747 242.685,74.564 242.728,74.074 243.438 C 71.871 246.630,67.903 245.830,69.157 242.447 C 70.941 237.635,73.504 233.147,74.444 233.191 C 75.357 233.234,75.909 232.791,75.920 232.008 C 75.925 231.674,70.274 229.259,69.488 229.259 C 69.350 229.259,69.132 229.530,69.005 229.861 M82.385 234.241 C 81.631 235.393,81.987 236.594,83.172 236.891 C 84.395 237.198,85.111 236.865,85.618 235.753 C 86.520 233.773,83.590 232.403,82.385 234.241 M348.146 233.679 C 341.783 235.615,341.752 241.852,348.106 241.852 C 350.789 241.852,351.669 243.011,349.918 244.238 C 348.795 245.024,348.265 244.965,347.239 243.939 C 346.708 243.409,346.181 243.176,345.901 243.349 C 345.213 243.774,346.180 247.038,346.993 247.035 C 350.028 247.025,353.333 244.375,353.333 241.953 C 353.333 239.903,352.491 239.270,349.215 238.859 C 346.216 238.482,345.739 238.209,346.099 237.075 C 346.473 235.898,348.121 235.627,348.919 236.612 C 349.741 237.627,350.906 237.304,350.576 236.153 C 350.453 235.722,350.252 234.912,350.130 234.352 C 349.898 233.288,349.677 233.214,348.146 233.679 M323.577 237.555 C 323.097 238.287,322.609 238.501,321.212 238.591 C 319.383 238.708,319.058 239.026,318.348 241.391 C 317.956 242.697,319.145 242.926,320.129 241.733 C 320.735 240.997,321.324 240.741,322.590 240.661 C 324.347 240.550,325.044 239.794,325.273 237.753 C 325.409 236.534,324.329 236.408,323.577 237.555 M335.556 238.777 C 334.782 239.056,331.851 241.922,331.858 242.392 C 331.877 243.702,332.555 243.798,333.699 242.654 C 335.043 241.311,336.587 241.111,337.535 242.159 C 338.442 243.160,338.309 243.501,336.574 244.628 C 333.082 246.897,332.611 247.973,334.255 249.928 C 335.896 251.877,337.993 251.674,339.312 249.438 C 340.027 248.227,340.145 248.164,340.723 248.688 C 342.180 250.006,344.172 248.999,344.507 246.776 C 344.635 245.921,344.450 245.805,343.522 246.161 C 342.426 246.581,341.944 245.950,341.171 243.087 C 340.098 239.109,338.352 237.769,335.556 238.777 M79.031 239.423 C 78.887 239.797,79.057 240.226,79.466 240.526 C 80.464 241.256,77.903 248.148,76.634 248.148 C 74.439 248.148,75.247 249.525,77.989 250.458 C 80.609 251.350,80.777 251.365,81.113 250.737 C 81.373 250.252,81.321 250.018,80.919 249.863 C 80.050 249.530,80.258 248.586,82.073 244.630 C 84.435 239.479,84.408 239.777,82.530 239.479 C 81.648 239.339,80.552 239.131,80.096 239.017 C 79.531 238.876,79.191 239.006,79.031 239.423 M309.841 241.693 C 309.165 242.370,309.105 243.094,309.643 244.098 C 310.354 245.428,312.963 244.642,312.963 243.097 C 312.963 241.322,311.066 240.468,309.841 241.693 M88.368 242.592 C 81.310 244.809,83.460 256.175,90.556 254.155 C 92.426 253.623,92.310 252.222,90.396 252.222 C 87.586 252.222,86.485 249.436,88.056 246.300 C 89.321 243.777,92.075 243.853,91.997 246.409 C 91.932 248.585,93.135 248.515,94.269 246.277 C 95.414 244.018,95.451 244.225,93.738 243.351 C 91.965 242.446,89.803 242.141,88.368 242.592 M323.470 243.915 C 322.784 244.643,322.222 245.403,322.222 245.604 C 322.222 245.805,322.056 245.867,321.852 245.741 C 321.648 245.615,321.481 245.188,321.481 244.793 C 321.481 243.865,321.465 243.868,319.050 245.231 C 316.861 246.467,316.439 247.572,318.152 247.585 C 319.462 247.596,321.852 254.161,320.921 255.191 C 320.497 255.659,320.460 257.079,320.873 257.031 C 323.765 256.695,327.549 253.704,325.081 253.704 C 323.976 253.704,322.025 248.122,322.728 246.971 C 323.594 245.553,325.604 245.335,326.121 246.603 C 327.298 249.487,328.025 252.190,327.744 252.634 C 327.128 253.607,327.334 254.925,328.056 254.624 C 328.412 254.475,329.642 254.024,330.789 253.621 C 333.024 252.835,333.561 251.481,331.638 251.481 C 330.716 251.481,330.802 251.681,329.482 246.481 C 328.474 242.510,325.851 241.390,323.470 243.915 M338.868 247.869 C 337.836 248.705,336.788 248.697,336.335 247.850 C 335.918 247.072,336.094 246.753,337.565 245.623 L 338.649 244.791 339.160 246.005 C 339.633 247.129,339.611 247.268,338.868 247.869 M98.297 246.632 C 91.493 249.722,94.662 259.750,101.852 257.882 C 103.319 257.501,103.736 256.154,102.407 256.089 C 102.000 256.069,101.201 256.024,100.631 255.989 C 99.149 255.899,97.778 254.393,97.778 252.856 C 97.778 251.078,97.866 251.063,101.321 252.231 L 104.437 253.284 104.996 252.485 C 107.685 248.646,102.957 244.515,98.297 246.632 M312.126 247.455 C 310.021 248.520,308.976 250.198,310.699 249.748 C 311.570 249.520,311.819 249.913,312.860 253.148 C 313.749 255.911,313.939 257.778,313.333 257.778 C 313.130 257.778,312.963 258.208,312.963 258.735 C 312.963 259.354,313.126 259.625,313.426 259.502 C 313.681 259.398,314.992 258.941,316.339 258.488 C 318.787 257.665,319.652 256.296,317.725 256.296 C 316.862 256.296,316.518 255.471,315.234 250.320 L 314.252 246.380 312.126 247.455 M101.876 248.161 C 102.641 248.571,102.915 250.741,102.201 250.741 C 101.300 250.741,98.519 249.889,98.519 249.613 C 98.519 248.565,100.794 247.582,101.876 248.161 M126.209 249.184 C 126.070 249.714,126.271 250.038,126.921 250.334 C 127.534 250.614,127.763 250.955,127.630 251.392 C 127.522 251.747,127.089 253.620,126.669 255.556 C 125.273 261.972,124.905 262.963,123.918 262.963 C 123.142 262.963,122.593 263.569,122.593 264.427 C 122.593 264.588,123.384 264.826,124.352 264.957 C 125.319 265.088,127.168 265.526,128.459 265.931 C 134.922 267.956,140.225 263.484,136.169 259.428 L 134.931 258.190 135.966 257.761 C 137.867 256.974,138.783 254.684,137.973 252.744 C 137.199 250.892,136.269 250.533,127.367 248.651 C 126.616 248.492,126.359 248.611,126.209 249.184 M110.590 249.645 C 106.106 250.986,104.624 258.159,108.330 260.588 C 111.956 262.963,116.365 261.128,117.650 256.710 C 118.988 252.105,115.163 248.277,110.590 249.645 M273.410 250.080 C 271.429 250.860,270.898 251.855,272.349 252.067 C 273.265 252.201,273.347 252.312,273.727 253.952 C 274.275 256.314,274.193 256.550,272.743 256.786 C 269.826 257.259,267.778 259.804,267.778 262.956 C 267.778 267.888,271.818 270.930,274.702 268.170 C 276.063 266.868,276.156 266.843,276.905 267.593 C 278.092 268.780,280.328 267.809,280.956 265.833 C 281.257 264.884,280.960 264.671,280.030 265.169 C 278.833 265.810,277.502 260.422,276.797 252.084 C 276.524 248.859,276.518 248.855,273.410 250.080 M303.704 249.516 C 303.398 249.625,302.613 250.320,301.958 251.061 C 300.930 252.225,300.767 252.303,300.755 251.636 C 300.732 250.370,300.385 250.352,298.115 251.498 C 295.883 252.625,295.499 253.537,297.156 253.775 C 298.332 253.943,300.292 260.545,299.445 261.481 C 298.867 262.119,298.682 263.343,299.167 263.320 C 302.167 263.180,306.504 260.370,303.720 260.370 C 302.090 260.370,300.829 254.021,302.244 252.934 C 304.201 251.429,305.081 252.264,306.114 256.602 C 306.593 258.612,306.652 259.422,306.343 259.731 C 305.909 260.165,305.761 261.481,306.146 261.481 C 309.074 261.481,312.564 259.034,310.368 258.520 C 309.546 258.328,309.380 257.978,308.864 255.356 C 307.944 250.685,307.840 250.422,306.680 249.822 C 305.574 249.250,304.701 249.160,303.704 249.516 M142.778 251.614 C 142.125 252.612,142.356 253.551,143.391 254.105 C 144.975 254.953,146.773 253.065,145.913 251.457 C 145.354 250.412,143.505 250.505,142.778 251.614 M113.767 252.094 C 114.602 252.850,114.687 255.740,113.928 257.556 C 112.248 261.576,108.712 259.791,109.627 255.384 C 110.330 251.999,112.104 250.589,113.767 252.094 M134.265 253.084 C 135.565 254.940,134.070 257.233,131.762 256.924 C 129.879 256.671,129.892 256.693,130.407 254.582 C 131.203 251.320,132.639 250.762,134.265 253.084 M285.556 254.128 C 282.763 254.931,280.700 258.342,281.299 261.166 C 282.310 265.934,286.251 267.714,290.122 265.150 C 292.648 263.477,292.521 261.677,289.969 262.979 C 288.113 263.926,286.918 263.895,285.791 262.870 C 283.794 261.055,284.091 260.560,287.619 259.820 C 291.161 259.077,291.426 258.809,290.776 256.637 C 290.104 254.395,288.054 253.410,285.556 254.128 M243.037 255.259 C 241.919 256.377,242.765 258.519,244.325 258.519 C 245.567 258.519,246.525 256.908,245.986 255.726 C 245.529 254.722,243.841 254.455,243.037 255.259 M287.333 256.370 C 287.706 256.743,287.982 258.139,287.685 258.152 C 287.634 258.154,286.801 258.396,285.833 258.690 L 284.074 259.224 284.074 258.316 C 284.074 256.582,286.248 255.285,287.333 256.370 M140.342 257.459 C 140.098 257.917,140.210 258.117,140.795 258.270 C 142.127 258.618,140.882 265.805,139.375 266.467 C 137.510 267.286,138.103 268.008,141.011 268.460 C 142.530 268.697,143.924 268.796,144.109 268.682 C 144.635 268.357,144.502 267.509,143.889 267.273 C 143.064 266.957,143.987 260.913,145.348 257.718 C 145.737 256.803,140.828 256.549,140.342 257.459 M150.994 258.680 C 144.159 261.139,146.134 272.260,153.066 270.346 C 156.128 269.500,156.355 267.881,153.382 268.088 C 150.879 268.262,149.830 267.017,150.115 264.212 C 150.515 260.268,154.022 258.603,154.377 262.189 C 154.563 264.067,155.890 263.630,156.530 261.481 C 157.186 259.278,157.211 259.371,155.833 258.944 C 153.547 258.236,152.402 258.174,150.994 258.680 M132.309 259.503 C 135.174 260.946,133.422 265.108,130.324 264.220 C 128.576 263.718,128.298 263.021,128.878 260.599 C 129.421 258.337,129.772 258.225,132.309 259.503 M275.289 262.130 C 276.050 266.285,274.492 268.196,272.207 265.911 C 269.649 263.353,270.445 258.889,273.459 258.889 L 274.696 258.889 275.289 262.130 M162.037 260.187 C 156.934 261.989,156.312 269.703,161.114 271.625 C 163.034 272.393,163.901 272.368,165.833 271.491 C 168.236 270.401,167.932 269.639,165.109 269.679 C 162.446 269.717,161.111 268.690,161.111 266.604 C 161.111 265.484,161.129 265.474,162.685 265.691 C 163.551 265.811,165.123 266.017,166.179 266.147 L 168.098 266.385 168.354 265.018 C 169.064 261.235,165.907 258.820,162.037 260.187 M252.945 260.464 C 250.326 262.229,249.372 266.265,250.885 269.183 C 252.817 272.910,258.868 272.716,260.833 268.863 C 263.713 263.214,257.958 257.086,252.945 260.464 M186.389 261.377 C 183.975 262.714,183.377 263.805,184.848 264.190 C 185.594 264.385,185.612 264.536,185.358 268.464 C 184.995 274.063,186.800 275.961,190.252 273.611 C 191.811 272.550,191.899 271.701,190.416 272.027 C 188.345 272.482,187.958 271.512,188.390 266.944 L 188.626 264.444 190.239 264.444 C 191.712 264.444,191.852 264.364,191.852 263.519 C 191.852 262.686,191.703 262.593,190.380 262.593 C 188.955 262.593,188.914 262.558,189.121 261.526 C 189.431 259.972,188.971 259.947,186.389 261.377 M243.796 261.393 C 241.793 261.976,240.936 263.333,242.571 263.333 C 244.022 263.333,245.045 270.545,243.720 271.434 C 242.504 272.250,242.712 273.476,244.022 273.214 C 244.605 273.098,245.938 272.889,246.985 272.750 C 248.982 272.485,249.716 271.414,248.177 271.011 C 247.327 270.789,247.037 269.202,246.927 264.169 C 246.843 260.320,247.001 260.460,243.796 261.393 M171.050 261.360 C 170.086 261.616,169.875 262.629,170.739 262.855 C 172.007 263.187,171.647 270.670,170.347 271.010 C 169.685 271.183,169.122 272.464,169.583 272.749 C 170.652 273.410,175.007 273.048,175.118 272.289 C 175.201 271.728,175.043 271.481,174.604 271.481 C 173.967 271.481,174.000 268.981,174.682 265.573 C 174.951 264.226,176.566 263.426,177.744 264.056 C 179.000 264.728,178.604 271.175,177.262 271.926 C 176.301 272.464,176.577 273.223,177.824 273.472 C 180.008 273.909,182.128 273.744,182.368 273.118 C 182.695 272.264,182.669 272.222,181.806 272.222 C 181.068 272.222,181.034 272.089,181.251 270.093 C 182.026 262.981,182.033 263.159,180.921 262.285 C 179.648 261.283,177.959 261.261,176.380 262.224 C 174.835 263.166,174.753 263.154,175.033 262.037 C 175.267 261.103,173.289 260.767,171.050 261.360 M233.611 262.146 C 231.351 262.775,230.620 263.900,232.315 264.141 C 233.598 264.323,234.366 271.889,233.148 272.356 C 232.843 272.473,232.593 272.892,232.593 273.287 C 232.593 273.883,238.132 274.130,238.750 273.561 C 239.513 272.860,239.142 271.887,238.073 271.784 L 236.852 271.667 236.745 268.681 C 236.653 266.098,236.737 265.606,237.370 265.034 C 238.205 264.278,238.889 264.523,238.889 265.577 C 238.889 266.097,239.145 266.296,239.815 266.296 C 240.708 266.296,240.741 266.210,240.741 263.889 C 240.741 260.894,239.683 260.536,237.544 262.804 L 236.296 264.127 236.296 262.804 C 236.296 262.077,236.171 261.498,236.019 261.517 C 235.866 261.537,234.782 261.820,233.611 262.146 M165.257 262.788 C 165.878 264.151,165.259 264.595,163.176 264.283 C 161.365 264.011,161.117 263.609,162.094 262.529 C 163.021 261.505,164.737 261.645,165.257 262.788 M257.222 262.726 C 258.714 265.002,258.716 269.293,257.227 269.864 C 255.263 270.618,253.357 268.110,253.341 264.749 C 253.328 261.965,255.860 260.646,257.222 262.726 M221.791 263.321 C 220.080 264.221,219.730 264.562,219.890 265.175 C 220.120 266.056,220.253 266.072,221.481 265.370 C 223.522 264.204,225.556 264.851,225.556 266.667 C 225.556 267.546,225.313 267.701,222.763 268.451 C 219.686 269.356,219.106 270.027,219.678 272.020 C 220.431 274.647,222.621 275.417,224.541 273.732 L 225.840 272.591 226.447 273.518 C 227.228 274.709,228.843 274.753,229.908 273.611 C 231.121 272.311,231.093 271.729,229.815 271.696 L 228.704 271.667 228.658 268.018 C 228.588 262.448,226.356 260.921,221.791 263.321 M195.897 263.435 C 191.936 266.104,191.839 272.653,195.737 274.282 C 198.313 275.358,202.593 274.299,202.593 272.585 C 202.593 271.729,202.637 271.737,200.618 272.245 C 198.500 272.778,197.161 272.238,196.464 270.570 C 195.616 268.540,195.647 268.519,199.419 268.519 C 203.346 268.519,203.608 268.323,203.126 265.755 C 202.574 262.809,198.680 261.559,195.897 263.435 M206.944 263.053 C 204.915 263.400,203.659 264.815,205.380 264.815 C 206.820 264.815,207.276 271.613,205.926 272.963 C 204.480 274.409,204.926 274.815,207.963 274.815 C 210.986 274.815,211.446 274.408,210.027 272.990 C 208.315 271.278,209.756 265.185,211.872 265.185 C 213.724 265.185,214.587 271.339,212.963 272.963 C 211.522 274.404,211.965 274.815,214.960 274.815 C 217.273 274.815,219.241 274.018,218.064 273.558 C 216.541 272.963,216.479 272.767,216.616 268.989 C 216.832 263.016,214.734 260.871,211.263 263.519 C 210.596 264.028,209.955 264.444,209.840 264.444 C 209.724 264.444,209.630 264.028,209.630 263.519 C 209.630 263.009,209.505 262.614,209.352 262.640 C 209.199 262.666,208.116 262.852,206.944 263.053 M199.556 264.889 C 200.771 266.104,200.094 267.037,197.998 267.037 C 196.168 267.037,196.012 266.972,196.192 266.285 C 196.576 264.818,198.631 263.965,199.556 264.889 M225.926 270.357 C 225.926 272.361,222.891 273.012,222.664 271.056 C 222.573 270.270,222.756 270.001,223.590 269.697 C 225.451 269.018,225.926 269.152,225.926 270.357 M210.982 297.691 C 211.897 298.276,211.720 300.245,210.723 300.561 C 209.772 300.863,208.889 300.161,208.889 299.103 C 208.889 297.770,209.967 297.042,210.982 297.691 M241.111 297.727 C 241.111 298.287,237.464 301.481,236.825 301.481 C 236.274 301.481,236.267 301.396,236.754 300.648 C 237.053 300.190,237.577 299.273,237.918 298.611 C 238.513 297.454,241.111 296.735,241.111 297.727 M177.612 305.556 C 179.008 309.426,180.241 312.592,180.353 312.591 C 180.464 312.591,181.661 309.466,183.012 305.647 L 185.468 298.704 188.290 298.596 C 191.198 298.484,192.380 299.231,190.172 299.785 C 188.777 300.135,188.519 301.323,188.519 307.385 C 188.519 314.374,188.668 315.160,190.050 315.436 C 192.539 315.934,191.186 316.667,187.778 316.667 C 185.062 316.667,184.444 316.564,184.444 316.111 C 184.444 315.806,184.674 315.556,184.955 315.556 C 186.159 315.556,186.314 314.593,186.212 307.762 L 186.111 300.991 183.333 308.839 C 179.724 319.039,180.016 319.044,176.215 308.704 L 173.356 300.926 173.437 307.963 C 173.517 314.869,173.534 315.007,174.352 315.366 C 176.135 316.148,175.287 316.667,172.222 316.667 C 169.835 316.667,169.259 316.559,169.259 316.111 C 169.259 315.768,169.608 315.556,170.172 315.556 C 171.650 315.556,171.852 314.586,171.846 307.524 C 171.840 300.403,171.796 300.186,170.274 299.804 C 169.265 299.551,169.034 299.238,169.506 298.765 C 169.642 298.630,170.950 298.519,172.414 298.519 L 175.074 298.519 177.612 305.556 M202.457 304.208 C 203.267 305.150,203.333 305.544,203.333 309.441 C 203.333 313.879,203.686 315.556,204.620 315.556 C 204.931 315.556,205.185 315.815,205.185 316.131 C 205.185 317.329,201.705 316.675,201.483 315.436 L 201.296 314.390 200.226 315.511 C 197.501 318.362,193.333 316.751,193.333 312.846 C 193.333 310.319,195.500 308.895,199.352 308.891 L 201.111 308.889 201.111 307.222 C 201.111 305.425,200.193 304.074,198.971 304.074 C 197.985 304.074,196.667 305.133,196.667 305.925 C 196.667 306.867,196.098 307.155,195.193 306.671 C 194.270 306.177,194.217 304.757,195.093 303.995 C 196.781 302.524,201.117 302.649,202.457 304.208 M226.351 303.927 C 229.038 306.321,228.829 314.477,226.037 316.157 C 224.027 317.366,220.912 317.010,219.816 315.445 C 219.301 314.709,219.259 314.872,219.259 317.621 C 219.259 320.688,219.579 321.481,220.815 321.481 C 221.181 321.481,221.481 321.731,221.481 322.037 C 221.481 322.490,220.864 322.593,218.148 322.593 C 215.432 322.593,214.815 322.490,214.815 322.037 C 214.815 321.731,215.128 321.481,215.510 321.481 C 216.938 321.481,217.056 320.764,216.952 312.731 L 216.852 305.000 215.648 304.470 C 213.813 303.663,214.202 303.286,216.744 303.408 C 218.844 303.509,219.064 303.599,219.286 304.444 C 219.496 305.249,219.565 305.284,219.808 304.711 C 220.558 302.945,224.692 302.449,226.351 303.927 M211.481 308.728 C 211.481 314.542,211.731 315.556,213.161 315.556 C 213.726 315.556,214.074 315.768,214.074 316.111 C 214.074 316.568,213.416 316.667,210.370 316.667 C 207.325 316.667,206.667 316.568,206.667 316.111 C 206.667 315.768,207.015 315.556,207.580 315.556 C 209.017 315.556,209.292 314.521,209.178 309.544 L 209.074 305.009 208.056 304.521 C 206.439 303.748,206.859 303.333,209.259 303.333 L 211.481 303.333 211.481 308.728 M234.820 308.241 C 234.827 314.172,235.102 314.951,237.243 315.110 C 239.690 315.291,240.475 314.124,240.672 310.010 C 240.865 305.968,240.626 304.894,239.434 304.441 C 237.833 303.832,238.421 303.333,240.741 303.333 L 242.963 303.333 242.963 309.000 C 242.963 314.854,243.129 315.556,244.519 315.556 C 244.885 315.556,245.185 315.806,245.185 316.111 C 245.185 317.250,241.239 316.856,240.946 315.687 C 240.700 314.710,240.699 314.710,240.151 315.492 C 238.868 317.323,235.057 317.316,233.511 315.479 C 232.651 314.458,232.593 314.118,232.593 310.187 C 232.593 305.424,232.468 304.890,231.246 304.425 C 229.682 303.831,230.295 303.333,232.593 303.333 L 234.815 303.333 234.820 308.241 M221.023 305.024 C 219.243 305.990,218.727 311.948,220.248 313.985 C 222.090 316.453,225.306 314.962,225.785 311.418 C 226.477 306.292,224.235 303.281,221.023 305.024 M197.222 310.443 C 194.944 311.734,195.507 315.185,197.996 315.185 C 199.855 315.185,200.806 314.159,201.021 311.921 L 201.205 310.000 199.584 310.011 C 198.693 310.017,197.630 310.212,197.222 310.443 "
			stroke="none"
			fill="#143454"
			fill-rule="evenodd"
		></path>
	</g>
</svg>
